<svg data-v-423bf9ae="" xmlns="http://www.w3.org/2000/svg" viewBox="0 0 449 100" class="iconLeft"><!----><!----><!----><g data-v-423bf9ae="" id="7dcdf953-4a09-45c7-9dca-967664dbf856" fill="#342103" transform="matrix(6.81818167040171,0,0,6.81818167040171,123.3423939487657,-16.555014819645706)"><path d="M4.54 7.11L2.98 7.11L2.98 5.33L1.54 5.33L1.54 7.11L0.27 7.11L0.27 8.32L1.54 8.32L1.54 14L2.98 14L2.98 8.32L4.54 8.32ZM10.50 7.11L8.46 12.59L6.41 7.11L4.89 7.11L7.60 14L9.31 14L12.03 7.11ZM20.73 6.99C19.73 6.99 18.93 7.48 18.54 8.27C18.17 7.46 17.43 6.99 16.46 6.99C15.60 6.99 14.87 7.36 14.46 8.04L14.46 7.11L13.03 7.11L13.03 14L14.46 14L14.46 9.67C14.46 8.74 15.02 8.13 15.92 8.13C16.83 8.13 17.36 8.74 17.36 9.67L17.36 14L18.80 14L18.80 9.67C18.80 8.74 19.36 8.13 20.26 8.13C21.15 8.13 21.70 8.74 21.70 9.67L21.70 14L23.13 14L23.13 9.49C23.13 7.98 22.15 6.99 20.73 6.99ZM30.30 7.11L30.30 8.11C29.69 7.41 28.81 6.99 27.79 6.99C25.84 6.99 24.42 8.48 24.42 10.56C24.42 12.63 25.84 14.13 27.79 14.13C28.81 14.13 29.69 13.71 30.30 13.01L30.30 14L31.72 14L31.72 7.11ZM28.08 12.88C26.81 12.88 25.89 11.91 25.89 10.56C25.89 9.21 26.81 8.23 28.08 8.23C29.37 8.23 30.30 9.21 30.30 10.56C30.30 11.91 29.37 12.88 28.08 12.88ZM34.97 12.80L39.42 8.19L39.42 7.11L33.15 7.11L33.15 8.32L37.58 8.32L33.11 12.92L33.11 14L39.45 14L39.45 12.80ZM47.66 10.57C47.64 8.48 46.12 6.99 43.99 6.99C41.86 6.99 40.31 8.48 40.31 10.56C40.31 12.63 41.86 14.13 43.99 14.13C45.68 14.13 47.15 13.03 47.54 11.51L46.09 11.51C45.82 12.33 44.98 12.95 44.00 12.95C42.81 12.95 41.90 12.15 41.72 11.00L47.61 11.00C47.64 10.86 47.66 10.71 47.66 10.57ZM44.00 8.16C45.14 8.16 46.05 8.88 46.28 9.90L41.76 9.90C42.01 8.86 42.88 8.16 44.00 8.16Z"></path></g><defs data-v-423bf9ae=""><linearGradient data-v-423bf9ae="" gradientTransform="rotate(25)" id="b8a84cc8-8408-40d5-9c81-f7626b5d9a24" x1="0%" y1="0%" x2="100%" y2="0%"><stop data-v-423bf9ae="" offset="0%" style="stop-color: rgb(229, 101, 0); stop-opacity: 1;"></stop><stop data-v-423bf9ae="" offset="100%" style="stop-color: rgb(235, 197, 29); stop-opacity: 1;"></stop></linearGradient></defs><g data-v-423bf9ae="" id="0e4239e2-3e78-436a-88f2-14da938e1ce4" transform="matrix(1.051833258734809,0,0,1.051833258734809,0.40834107568500855,0.21410581186906086)" stroke="none" fill="url(#b8a84cc8-8408-40d5-9c81-f7626b5d9a24)"><path d="M86.413 0c-7.505 0-13.588 6.083-13.588 13.587v2.752c-1 3.982-4.593 6.934-8.884 6.934H36.319c-4.84 0-8.797-3.751-9.143-8.503h-.002v-1.114c0-7.504-6.083-13.588-13.587-13.588C6.083.067 0 6.151 0 13.655v67.422c0 7.504 6.083 13.588 13.587 13.588 6.764 0 12.359-4.947 13.398-11.418h.179c.238-4.857 4.239-8.727 9.154-8.727H63.94c4.336 0 7.955 3.014 8.914 7.057.297 7.238 6.246 13.021 13.559 13.021 7.504 0 13.587-6.083 13.587-13.588V13.587C100 6.083 93.917 0 86.413 0zM17.027 80.62H9.459a3.957 3.957 0 0 1 0-7.914h7.568a3.956 3.956 0 0 1 0 7.914zm0-14.65H9.459a3.956 3.956 0 0 1 0-7.913h7.568a3.956 3.956 0 1 1 0 7.913zm0-14.648H9.459a3.955 3.955 0 1 1 0-7.91h7.568a3.955 3.955 0 1 1 0 7.91zm0-14.645H9.459a3.956 3.956 0 0 1 0-7.913h7.568a3.956 3.956 0 0 1 0 7.913zm0-14.648H9.459a3.956 3.956 0 1 1 0-7.913h7.568a3.957 3.957 0 0 1 0 7.913zm46.914 47.38H36.319c-4.853 0-8.815-3.771-9.145-8.539V36.925c.33-4.769 4.292-8.539 9.145-8.539h27.623c4.285 0 7.875 2.944 8.884 6.918v27.187c-1.01 3.972-4.597 6.918-8.885 6.918zm25.913 11.14h-7.568a3.955 3.955 0 1 1 0-7.911h7.568a3.954 3.954 0 0 1 3.955 3.956 3.954 3.954 0 0 1-3.955 3.955zm0-14.647h-7.568a3.955 3.955 0 1 1 0-7.911h7.568a3.954 3.954 0 0 1 3.955 3.957 3.955 3.955 0 0 1-3.955 3.954zm0-14.646h-7.568a3.957 3.957 0 0 1 0-7.915h7.568a3.956 3.956 0 0 1 3.955 3.957 3.957 3.957 0 0 1-3.955 3.958zm0-14.649h-7.568a3.956 3.956 0 0 1 0-7.911h7.568a3.955 3.955 0 0 1 3.955 3.957 3.953 3.953 0 0 1-3.955 3.954zm0-14.646h-7.568a3.955 3.955 0 1 1 0-7.911h7.568a3.953 3.953 0 0 1 3.955 3.956 3.955 3.955 0 0 1-3.955 3.955z"></path></g><!----></svg>